HIERARCHY
ROOT Hips
{
	OFFSET	0.00	0.00	0.00
	CHANNELS 6 Xposition Yposition Zposition Zrotation Xrotation Yrotation
	JOINT LeftHip
	{
		OFFSET	 3.430000	 0.000000	 0.000000
		CHANNELS 3 Zrotation Xrotation Yrotation
		JOINT LeftKnee
		{
			OFFSET	 0.000000	-18.469999	 0.000000
			CHANNELS 3 Zrotation Xrotation Yrotation
			JOINT LeftAnkle
			{
				OFFSET	 0.000000	-17.950001	 0.000000
				CHANNELS 3 Zrotation Xrotation Yrotation
				End Site 
				{
					OFFSET	 0.000000	-3.119996	 0.000000
				}
			}
		}
	}
	JOINT RightHip
	{
		OFFSET	-3.430000	 0.000000	 0.000000
		CHANNELS 3 Zrotation Xrotation Yrotation
		JOINT RightKnee
		{
			OFFSET	 0.000000	-18.809999	 0.000000
			CHANNELS 3 Zrotation Xrotation Yrotation
			JOINT RightAnkle
			{
				OFFSET	 0.000000	-17.570000	 0.000000
				CHANNELS 3 Zrotation Xrotation Yrotation
				End Site 
				{
					OFFSET	 0.000000	-3.250000	 0.000000
				}
			}
		}
	}
	JOINT Chest
	{
		OFFSET	 0.000000	 4.570000	 0.000000
		CHANNELS 3 Zrotation Xrotation Yrotation
		JOINT LeftCollar
		{
			OFFSET	 1.060000	 15.330000	 1.760000
			CHANNELS 3 Zrotation Xrotation Yrotation
			JOINT LeftShoulder
			{
				OFFSET	 5.810000	 0.000000	 0.000000
				CHANNELS 3 Zrotation Xrotation Yrotation
				JOINT LeftElbow
				{
					OFFSET	 0.000000	-12.080000	 0.000000
					CHANNELS 3 Zrotation Xrotation Yrotation
					JOINT LeftWrist
					{
						OFFSET	 0.000000	-9.820000	 0.000000
						CHANNELS 3 Zrotation Xrotation Yrotation
						End Site 
						{
							OFFSET	 0.000000	-7.369996	 0.000000
						}
					}
				}
			}
		}
		JOINT RightCollar
		{
			OFFSET	-1.060000	 15.330000	 1.760000
			CHANNELS 3 Zrotation Xrotation Yrotation
			JOINT RightShoulder
			{
				OFFSET	-6.060000	 0.000000	 0.000000
				CHANNELS 3 Zrotation Xrotation Yrotation
				JOINT RightElbow
				{
					OFFSET	 0.000000	-11.900000	 0.000000
					CHANNELS 3 Zrotation Xrotation Yrotation
					JOINT RightWrist
					{
						OFFSET	 0.000000	-9.520000	 0.000000
						CHANNELS 3 Zrotation Xrotation Yrotation
						End Site 
						{
							OFFSET	 0.000000	-7.140012	 0.000000
						}
					}
				}
			}
		}
		JOINT Neck
		{
			OFFSET	 0.000000	 17.620001	 0.000000
			CHANNELS 3 Zrotation Xrotation Yrotation
			JOINT Head
			{
				OFFSET	 0.000000	 5.190000	 0.000000
				CHANNELS 3 Zrotation Xrotation Yrotation
				End Site 
				{
					OFFSET	 0.000000	 4.140008	 0.000000
				}
			}
		}
	}
}

MOTION
Frames: 11
Frame Time: 0.033333
27.0034 18.3722 -40.009 -4.38295 0.318661 138.559 7.8918 -2.64041 7.87341 0.536003 1.92898 -1.33376 -25.2444 42.2682 2.03816 -3.75577 6.52735 -22.8367 4.10181 3.93788 1.48771 15.7964 40.4542 1.58171 -10.1398 -11.692 -9.8663 0 0 0 176.615 -22.2085 140.522 -13.5085 -22.1125 -5.34701 91.2504 -46.0632 41.3273 0 0 0 -166.389 -8.68711 -88.7014 -4.03643 2.4993 5.90073 -69.1095 -50.4192 46.5117 0 0 0 5.62755 -0.179267 -23.5809 
27.1992 18.99 -39.7504 -3.55711 1.06331 140.7 8.69607 -2.34629 8.82976 0.184842 2.35544 -1.35605 -24.7971 42.1789 2.61737 -4.29648 6.47519 -23.6118 4.18075 3.94068 1.88436 15.7553 40.3212 1.49319 -10.9876 -10.4954 -9.4664 0 0 0 175.04 -22.6821 138.986 -15.3265 -24.7045 -6.61619 92.3312 -47.3147 41.1332 0 0 0 -165.64 -7.82491 -87.8742 -4.29668 2.39207 4.86355 -65.5142 -40.0485 46.4757 0 0 0 6.85256 0.742974 -26.0251 
27.3675 19.2612 -39.5143 -3.54079 1.04901 142.943 8.68237 -3.50344 8.7083 0.34888 2.77469 -0.499486 -23.0155 42.9049 0.942429 -5.12282 5.14284 -24.0608 4.25423 3.84227 1.50789 15.1936 40.4729 2.35701 -11.8192 -10.1491 -9.35822 0 0 0 173.803 -23.0952 137.809 -17.5887 -27.476 -8.62767 90.6291 -48.7379 38.3329 0 0 0 -164.507 -7.5681 -87.5769 -5.15466 2.37449 4.10733 -57.5208 -28.6372 42.3598 0 0 0 7.90934 1.45997 -28.2774 
27.4554 18.867 -39.3511 -3.06047 1.42443 144.828 8.32463 -4.33821 7.92655 0.506792 3.1171 -0.647157 -22.8872 43.0354 1.11641 -6.03295 4.07159 -23.9093 4.35653 4.04047 1.46955 14.6964 40.2546 2.01778 -12.3388 -8.92025 -9.03973 0 0 0 172.255 -23.2179 136.203 -20.1543 -30.0793 -10.5146 88.9936 -50.7779 35.6582 0 0 0 -162.882 -7.80516 -86.9469 -5.83969 2.58932 3.33181 -45.6327 -17.5297 39.2096 0 0 0 8.74897 1.99541 -30.1335 
27.5257 18.1939 -39.2456 -2.40686 1.84375 146.637 8.11159 -4.92047 7.62055 0.482454 3.58402 -0.712694 -22.3911 43.3254 0.85311 -6.9808 3.31268 -24.2834 4.41689 4.26749 1.36529 14.0171 40.2422 1.77749 -12.7545 -7.46031 -8.72755 0 0 0 169.923 -23.3222 133.48 -22.9489 -32.7977 -12.9543 85.9766 -52.2294 31.6565 0 0 0 -161.073 -8.48468 -86.0606 -6.17403 3.2723 2.79787 -31.6712 -6.02773 38.1039 0 0 0 9.3421 2.28476 -31.712 
27.5784 16.8755 -39.2004 -1.64546 2.16722 148.482 7.65474 -5.92254 7.03132 0.563894 4.52495 -0.709712 -21.6752 43.8875 0.162758 -8.11754 2.22596 -24.9947 4.43719 4.86727 1.33993 12.9701 40.5557 1.86517 -12.8498 -6.00112 -8.02295 0 0 0 166.911 -23.2284 130.34 -26.4544 -35.4729 -16.0928 80.8283 -53.1072 25.9083 0 0 0 -158.473 -9.36841 -84.2166 -5.8138 3.81117 2.13081 -15.8565 4.75918 39.2258 0 0 0 9.60704 2.52911 -33.3923 
27.5859 15.2131 -39.213 -1.11438 2.15223 149.842 7.04914 -7.17484 6.13976 0.730438 5.71161 -0.748918 -21.0287 44.354 -0.519699 -9.16463 0.805272 -25.5979 4.41621 5.86197 1.31558 11.6282 41.0903 2.14584 -12.4975 -5.19272 -7.46782 0 0 0 163.549 -22.9761 126.792 -29.1161 -37.5828 -18.1814 74.8363 -52.8173 19.9619 0 0 0 -155.943 -10.6471 -82.3817 -5.19404 3.89811 1.74023 1.05634 15.6589 41.3541 0 0 0 9.33186 2.76699 -34.5436 
27.5457 13.1765 -39.3059 -0.300506 2.26591 150.894 6.40295 -8.15619 5.01415 0.992328 7.60751 -0.880147 -19.3229 44.6575 -2.01069 -10.0368 -0.340668 -25.5524 4.41677 7.7691 1.2746 9.83649 41.0929 2.35152 -11.7486 -4.07434 -6.58451 0 0 0 159.587 -22.3141 123.051 -31.8818 -39.2565 -20.6771 68.8471 -51.494 14.2535 0 0 0 -153.491 -12.2708 -81.0375 -4.44039 3.03854 1.2786 18.2341 26.0215 40.614 0 0 0 8.75141 2.86983 -35.6324 
27.4503 10.4593 -39.3661 1.0297 2.69544 151.719 5.48595 -7.7506 3.72346 0.99606 11.9242 -1.3528 -15.6143 38.4551 -2.91865 -10.3931 -1.26622 -24.6297 4.42223 11.7112 1.10031 7.9584 36.153 1.64428 -10.1969 -2.44629 -5.45428 0 0 0 154.312 -21.0294 118.797 -36.4415 -41.359 -24.5879 63.6638 -49.3242 9.88134 0 0 0 -150.712 -13.634 -80.1546 -3.30857 -0.0204871 2.0335 31.8896 29.6718 36.7727 0 0 0 7.45899 2.59784 -36.6363 
27.2921 7.4534 -39.3862 2.45844 3.70221 152.412 3.84954 -5.09193 2.0254 1.14518 15.4192 -1.77688 -12.7226 30.1744 -3.15448 -10.6896 -1.81278 -24.0389 4.52595 17.4313 1.35189 6.40875 29.1527 0.196147 -8.3972 -0.69837 -4.14381 0 0 0 147.515 -19.9781 113.823 -42.6737 -43.4724 -30.1255 61.4463 -47.1138 8.09642 0 0 0 -147.879 -14.2004 -78.9857 -0.683986 -5.34711 3.02025 35.8839 28.9127 36.5129 0 0 0 5.55741 2.3964 -37.7006 
27.0887 4.4073 -39.3611 3.95051 5.35419 152.785 2.53645 -2.11416 0.345535 0.862917 19.6456 -2.15946 -10.3191 20.2523 -2.8254 -10.6391 -1.3984 -22.5577 4.54597 23.3233 1.28121 4.84908 20.8366 -1.00546 -6.57201 1.3744 -2.84912 0 0 0 138.845 -19.0849 107.759 -51.4694 -45.2325 -37.4384 59.9657 -45.2539 7.10444 0 0 0 -144.684 -15.1504 -79.5392 3.00954 -12.4932 5.49756 35.6077 27.5109 39.4177 0 0 0 3.27682 2.22903 -38.5533 
